<svg xmlns="http://www.w3.org/2000/svg" width="14" height="14" viewBox="0 0 14 14">
  <g id="call-phone" transform="translate(0 -0.394)">
    <g id="Group_147" data-name="Group 147" transform="translate(0 0.394)">
      <g id="Group_146" data-name="Group 146" transform="translate(0 0)">
        <path id="Path_146" data-name="Path 146" d="M13.686,11.467,11.524,9.3a1.126,1.126,0,0,0-1.589.03L8.845,10.421,8.63,10.3A10.84,10.84,0,0,1,6.01,8.4a10.924,10.924,0,0,1-1.9-2.631c-.04-.073-.079-.144-.117-.21l.731-.732.359-.361a1.131,1.131,0,0,0,.029-1.593L2.951.708a1.124,1.124,0,0,0-1.589.03l-.609.614.017.017a3.534,3.534,0,0,0-.5.888,3.687,3.687,0,0,0-.223.9c-.285,2.372.8,4.54,3.731,7.482C7.832,14.7,11.1,14.4,11.243,14.383a3.646,3.646,0,0,0,.9-.227,3.51,3.51,0,0,0,.882-.5l.013.012.617-.606A1.133,1.133,0,0,0,13.686,11.467Z" transform="translate(0 -0.394)" fill="#548eff"/>
      </g>
    </g>
  </g>
</svg>
