<svg xmlns="http://www.w3.org/2000/svg" width="11" height="16" viewBox="0 0 11 16">
    <defs>
        <style>
            .cls-1{fill:#e91d46}
        </style>
    </defs>
    <path id="gps" d="M-.75 0a5.537 5.537 0 0 0-5.5 5.562C-6.25 9.416-.745 16-.745 16S4.75 9.226 4.75 5.562A5.537 5.537 0 0 0-.75 0zM.909 7.19a2.327 2.327 0 0 1-1.659.694 2.326 2.326 0 0 1-1.659-.694 2.394 2.394 0 0 1 0-3.356 2.318 2.318 0 0 1 1.659-.7 2.319 2.319 0 0 1 1.659.7 2.394 2.394 0 0 1 0 3.356zm0 0" class="cls-1" transform="translate(6.25)"/>
</svg>
