<svg xmlns="http://www.w3.org/2000/svg" width="155.829" height="96.802" viewBox="0 0 155.829 96.802">
  <defs>
    <style>
      .cls-1, .cls-8 {
        fill: #387dff;
      }

      .cls-1, .cls-11, .cls-3 {
        opacity: 0.1;
      }

      .cls-2 {
        fill: #d4dfec;
      }

      .cls-4 {
        fill: #65617d;
      }

      .cls-5 {
        fill: #3f3d56;
      }

      .cls-6 {
        fill: #fbbebe;
      }

      .cls-7 {
        fill: #f88;
      }

      .cls-9 {
        fill: #42312e;
        opacity: 0.3;
      }

      .cls-10 {
        fill: #c27501;
        opacity: 0.25;
      }

      .cls-12 {
        opacity: 0.2;
      }
    </style>
  </defs>
  <g id="disabled" transform="translate(-895.199 -552)">
    <ellipse id="Ellipse_796" data-name="Ellipse 796" class="cls-1" cx="74.756" cy="10.568" rx="74.756" ry="10.568" transform="translate(901.516 627.666)"/>
    <path id="Path_9779" data-name="Path 9779" class="cls-2" d="M364.464,483.053l6.985,8.98-.717.281-8.923-1.524v1.92l9.308.878.332,1.719-7.324,6.5,1.3,1.807,7.681-8.98v14.233h2.09L374.008,494.4l.621,1.554,7.169,10.306,1.318-1.3L375.2,494.633l-.566-.738.847.339.085.594,10.534,1.92.151-1.811-10.981-1.349-.168-1.175,8.2-7.949-1.3-1.411-7.61,9.008-.72-.41,1.215-13.045-1.936-.226-.056,13.356-.536-.762-6.735-9.433Z" transform="translate(584.952 112.825)"/>
    <path id="Path_9780" data-name="Path 9780" class="cls-3" d="M364.464,483.053l6.985,8.98-.717.281-8.923-1.524v1.92l9.308.878.332,1.719-7.324,6.5,1.3,1.807,7.681-8.98v14.233h2.09L374.008,494.4l.621,1.554,7.169,10.306,1.318-1.3L375.2,494.633l-.566-.738.847.339.085.594,10.534,1.92.151-1.811-10.981-1.349-.168-1.175,8.2-7.949-1.3-1.411-7.61,9.008-.72-.41,1.215-13.045-1.936-.226-.056,13.356-.536-.762-6.735-9.433Z" transform="translate(584.952 112.825)"/>
    <path id="Path_9781" data-name="Path 9781" class="cls-4" d="M433.183,531.064c-1.736-8.963-8.917-15.111-16.054-13.733s-11.518,9.759-9.787,18.722,8.917,15.1,16.054,13.735S434.919,540.028,433.183,531.064Zm-10.14,16.9c-6.334,1.215-12.714-4.236-14.25-12.191s2.354-15.4,8.688-16.622,12.714,4.236,14.25,12.193-2.356,15.4-8.69,16.62Z" transform="translate(538.704 72.854)"/>
    <path id="Path_9782" data-name="Path 9782" class="cls-3" d="M433.183,531.064c-1.736-8.963-8.917-15.111-16.054-13.733s-11.518,9.759-9.787,18.722,8.917,15.1,16.054,13.735S434.919,540.028,433.183,531.064Zm-10.14,16.9c-6.334,1.215-12.714-4.236-14.25-12.191s2.354-15.4,8.688-16.622,12.714,4.236,14.25,12.193-2.356,15.4-8.69,16.62Z" transform="translate(538.704 72.854)"/>
    <ellipse id="Ellipse_797" data-name="Ellipse 797" class="cls-4" cx="2.703" cy="3.045" rx="2.703" ry="3.045" transform="translate(954.791 604.117) rotate(-10.93)"/>
    <path id="Path_9783" data-name="Path 9783" class="cls-5" d="M640.66,727.924v1.59s6.841-.818,7.548-1.151a38.938,38.938,0,0,0,4.944-3.579c0-.214-.594-.623-.594-.623l-7.768.623Z" transform="translate(345.576 -98.231)"/>
    <path id="Path_9784" data-name="Path 9784" class="cls-3" d="M640.66,727.924v1.59s6.841-.818,7.548-1.151a38.938,38.938,0,0,0,4.944-3.579c0-.214-.594-.623-.594-.623l-7.768.623Z" transform="translate(345.576 -98.231)"/>
    <path id="Path_9785" data-name="Path 9785" class="cls-5" d="M609.173,759.247h.564s6.944-1.823,6.656-.224-4.946,4.5-4.946,4.5l-4.126.97-2.777.222-1.654-.491-.979-1.33Z" transform="translate(377.6 -126.499)"/>
    <path id="Path_9786" data-name="Path 9786" class="cls-2" d="M695.49,712.016l2.6-.446s.632,1.614.149,1.736a26.556,26.556,0,0,1-2.751.158Z" transform="translate(300.265 -87.826)"/>
    <path id="Path_9787" data-name="Path 9787" class="cls-2" d="M493.888,554.43h11v12.533h-1.7V555.909l-10.032-.418Z" transform="translate(476.411 49.977)"/>
    <path id="Path_9788" data-name="Path 9788" class="cls-2" d="M572.969,498.617s3.394-.469,2.887,7.747l-1.425-1s.911-5.381-2.43-6.744Z" transform="translate(402.318 88.164)"/>
    <path id="Path_9789" data-name="Path 9789" class="cls-5" d="M470.692,533.85H446.08l1.264,6.357,24.24,1.637S472.848,534.185,470.692,533.85Z" transform="translate(506.379 59.043)"/>
    <path id="Path_9790" data-name="Path 9790" class="cls-2" d="M313.044,400.952s.521-2.672-2.534-2.3-1.191-2.305-1.191-2.305,5.128-.783,5.055,4.069S313.044,400.952,313.044,400.952Z" transform="translate(619.865 172.714)"/>
    <path id="Path_9791" data-name="Path 9791" class="cls-2" d="M417.372,390.507a2.631,2.631,0,0,1,3.2,2.724h.967s.521-3.718-4.166-3.941Z" transform="translate(530.105 178.508)"/>
    <path id="Path_9792" data-name="Path 9792" class="cls-2" d="M297.82,449.15l.745,13.087.892-.521V448.48Z" transform="translate(637.833 137.535)"/>
    <path id="Path_9793" data-name="Path 9793" class="cls-2" d="M394.63,426.095l1.305,8.819,1.222-.714-1.264-8.85Z" transform="translate(557.829 156.649)"/>
    <path id="Path_9794" data-name="Path 9794" class="cls-2" d="M453.36,495.04s2.231-1.785,4.314-1.264l.3.585s-4.09,1.274-4.239,1.868Z" transform="translate(500.363 92.238)"/>
    <path id="Path_9795" data-name="Path 9795" class="cls-5" d="M334.455,408.834s-2.6-.67-2.38,1.562,2.38,13.162,2.38,13.162h2.231v11.3l16.8-4.722L352.3,419.469h1.189l-2.007-12.27s-.892-1.264-1.635-.668a16.077,16.077,0,0,1-1.338.965Z" transform="translate(600.605 164.392)"/>
    <path id="Path_9796" data-name="Path 9796" class="cls-5" d="M285.375,397.249s-.521,2.083.745,2.529,5.427-1.042,5.427-1.042-1.115-2.1,0-2.724C291.546,396.013,287.085,395.539,285.375,397.249Z" transform="translate(639.275 173.002)"/>
    <path id="Path_9797" data-name="Path 9797" class="cls-5" d="M388.957,387.479s-.981,2.507.587,2.295,5.072-1.141,5.072-1.141-.6-2.047,0-2.343C394.617,386.29,390.3,386.438,388.957,387.479Z" transform="translate(553.836 180.987)"/>
    <path id="Path_9798" data-name="Path 9798" class="cls-5" d="M327.591,500.74l-16.061,6.024,2.6,4.684,14.351-5.354Z" transform="translate(626.503 94.347)"/>
    <path id="Path_9799" data-name="Path 9799" class="cls-5" d="M475.033,482.66l12.79.446s6.319,1.191.965,3.2l-16.283-.46S467.672,483.106,475.033,482.66Z" transform="translate(485.828 101.346)"/>
    <path id="Path_9800" data-name="Path 9800" class="cls-5" d="M435.382,588.87c.186.115,24.761,1.6,24.761,1.6l.111.851a21.225,21.225,0,0,1-17.177,6.133c-10.634-1.158-10.707-1.486-10.707-1.486Z" transform="translate(517.709 13.574)"/>
    <path id="Path_9801" data-name="Path 9801" class="cls-3" d="M435.382,588.87c.186.115,24.761,1.6,24.761,1.6l.111.851a21.225,21.225,0,0,1-17.177,6.133c-10.634-1.158-10.707-1.486-10.707-1.486Z" transform="translate(517.709 13.574)"/>
    <path id="Path_9802" data-name="Path 9802" class="cls-2" d="M432.964,592.83h6.171v14.5h-1.97V594.54l-5.055-.483Z" transform="translate(526.855 18.243)"/>
    <path id="Path_9803" data-name="Path 9803" class="cls-4" d="M486.6,751.686c0,3.8-2.6,6.879-5.8,6.879s-5.8-3.08-5.8-6.879,2.6-6.876,5.8-6.876h.115a5.006,5.006,0,0,1,2.224.58A7.03,7.03,0,0,1,486.6,751.686Z" transform="translate(482.479 -115.296)"/>
    <path id="Path_9804" data-name="Path 9804" class="cls-3" d="M504.532,745.4c-.4,3.185-1.007,7.031-1.575,7.374-.986.594-2.139.929-2.064-.856l1.415-7.1A5.007,5.007,0,0,1,504.532,745.4Z" transform="translate(461.083 -115.305)"/>
    <path id="Path_9805" data-name="Path 9805" class="cls-2" d="M500.244,732.92,502.4,722.1h1.963s-1.078,11.08-2.064,11.674S500.171,734.7,500.244,732.92Z" transform="translate(461.62 -96.529)"/>
    <ellipse id="Ellipse_798" data-name="Ellipse 798" class="cls-4" cx="5.013" cy="5.946" rx="5.013" ry="5.946" transform="translate(973.936 620.348)"/>
    <path id="Path_9806" data-name="Path 9806" class="cls-2" d="M591.636,681.733l1.864-9.353h1.7s-.932,9.577-1.783,10.093S591.572,683.275,591.636,681.733Z" transform="translate(386.093 -55.44)"/>
    <path id="Path_9807" data-name="Path 9807" class="cls-2" d="M518.374,658.28s-1.562,1.264,0,1.9a16.09,16.09,0,0,0,4.76.552s1,.043,1.3,1.562,5.838,15.276,5.838,15.276l1.3-.67L525.884,661.5s-1-2.935-2.974-3.048S518.374,658.28,518.374,658.28Z" transform="translate(447.208 -43.787)"/>
    <path id="Path_9808" data-name="Path 9808" class="cls-2" d="M595.36,781.769s1.562,2.788,2.378,2.491.26-1.823.26-1.823l-1.5-1.227Z" transform="translate(383.013 -145.378)"/>
    <path id="Path_9809" data-name="Path 9809" class="cls-2" d="M633.05,773.934l2.974-.854s1.413,1.97.335,2.491a14.5,14.5,0,0,1-3.309.809Z" transform="translate(351.865 -138.659)"/>
    <path id="Path_9810" data-name="Path 9810" class="cls-5" d="M587.22,746.14s.54,3.786,1.793,3.819S597.6,745.7,597.6,745.7s-1.153-3.941-1.821-3.718S587.22,746.14,587.22,746.14Z" transform="translate(389.74 -112.948)"/>
    <path id="Path_9811" data-name="Path 9811" class="cls-5" d="M601.92,777.68l6.223-1.029s-.658,2,.321,2.68l-5.3,1.161Z" transform="translate(377.592 -141.609)"/>
    <path id="Path_9812" data-name="Path 9812" class="cls-5" d="M637.453,706.11s-5.392,3.055-5.354,3.3.854,4.189,1.413,4.227,5.279-4.015,5.279-4.015Z" transform="translate(352.651 -83.314)"/>
    <path id="Path_9813" data-name="Path 9813" class="cls-5" d="M664.521,712.775l5.652-1.2s-.038,2.069.408,2.354l-6.131,1.12Z" transform="translate(325.916 -87.826)"/>
    <path id="Path_9814" data-name="Path 9814" class="cls-2" d="M589.165,607.625s-.135,1.078.3,1.116,3.159-.446,3.829.483,7.584,16.582,7.584,16.582l1.3-.858-6.513-15.724A5.6,5.6,0,0,0,589.165,607.625Z" transform="translate(388.149 -1.579)"/>
    <path id="Path_9815" data-name="Path 9815" class="cls-6" d="M375.68,372.121l.262.279,4.7,5.024.849.908.847.259,3.819,1.167s-.658-4.619-2.01-5.555a.656.656,0,0,1-.278-.463,1.579,1.579,0,0,1,.064-.641,4.6,4.6,0,0,1,.356-.859,10.608,10.608,0,0,1,.562-.943l.146-.215a23.094,23.094,0,0,1,1.647-2.1s-.83-.694-1.868-1.491c-1.824-1.4-4.289-3.139-4.02-2.036.137.557-.347,1.446-1.042,2.4-.028.036-.056.075-.085.111a26.43,26.43,0,0,1-1.894,2.159C376.645,371.255,375.68,372.121,375.68,372.121Z" transform="translate(564.558 198.493)"/>
    <path id="Path_9816" data-name="Path 9816" class="cls-6" d="M619.066,673.83s1.663,5.407,4.408,6.2a13.583,13.583,0,0,0,6.159-.118s.983,2.72-.382,3.38-6.249-.144-7.2.174-3.441,1.632-3.441,1.632a17.067,17.067,0,0,1-.569-3.656A59.873,59.873,0,0,0,617,674.728Z" transform="translate(365.129 -56.638)"/>
    <path id="Path_9817" data-name="Path 9817" class="cls-7" d="M630.407,707.743s1.941-1.774,1.953-1.883a33.857,33.857,0,0,0,4.128.465c.8-.078,6.47-.391,4.828,1.977s-11.284,3.72-11.393,3.736-1.594-1.172-1.345-2.257S629.428,707.717,630.407,707.743Z" transform="translate(355.585 -83.108)"/>
    <path id="Path_9818" data-name="Path 9818" class="cls-4" d="M462.331,545.79l2.831,1.021a22.258,22.258,0,0,0,6.713-.561c3.067-.859,13.54-.174,14.868.781s2.342,3.857,2.342,3.857-.392,4.474.191,5.269,1.909,12.367,1.909,12.367-2.562,2.068-4.447,1.856-5.833-17.076-5.833-17.076l-19.555-2.79Z" transform="translate(493.76 49.175)"/>
    <path id="Path_9819" data-name="Path 9819" class="cls-6" d="M598.55,712.186l1.852,2.328,1.463,1.844s.318,1.3.79,2.651c.483,1.389,1.123,2.828,1.736,2.982,1.229.307,8.159-1.389,8.159-1.389a5.547,5.547,0,0,0-4.2-4.513,4.362,4.362,0,0,1-.6-.187c-2.17-.84-3.453-3.231-4.053-4.758a5.837,5.837,0,0,1-.411-1.352Z" transform="translate(380.377 -86.355)"/>
    <path id="Path_9820" data-name="Path 9820" class="cls-3" d="M622.2,748.117c.483,1.389,1.123,2.828,1.736,2.982,1.229.307,8.159-1.389,8.159-1.389a5.547,5.547,0,0,0-4.2-4.513,4.342,4.342,0,0,1-.6-.187A35.868,35.868,0,0,1,622.2,748.117Z" transform="translate(360.832 -115.462)"/>
    <path id="Path_9821" data-name="Path 9821" class="cls-7" d="M621.458,747.119s5.456-2.836,5.51-3.559a19.853,19.853,0,0,0,4.38.227c1.04-.26,6.959-.21,5.635,2.279s-8.506,4.437-8.506,4.437-6.682.779-6.977.41S621.458,747.119,621.458,747.119Z" transform="translate(361.529 -114.263)"/>
    <path id="Path_9822" data-name="Path 9822" class="cls-6" d="M466.9,478.991s.453.222,1.161.521c2.267.969,7.159,2.777,8.256.821,1.439-2.56-4.392-2.6-5.052-2.227-.347.2-.979,0-1.5-.25a8.045,8.045,0,0,1-.859-.465Z" transform="translate(489.173 105.702)"/>
    <path id="Path_9823" data-name="Path 9823" class="cls-3" d="M398.38,367.926a6.289,6.289,0,0,0,4.861,3.3c.125.014.25.024.373.031a22.584,22.584,0,0,1,1.793-2.312s-6.31-5.258-5.888-3.527C399.656,366,399.135,366.935,398.38,367.926Z" transform="translate(545.798 198.527)"/>
    <path id="Path_9824" data-name="Path 9824" class="cls-6" d="M394.306,332.512a6.291,6.291,0,0,0,5.555,6.968c.165.019.33.031.493.038a6.3,6.3,0,1,0-6.048-7.006Z" transform="translate(549.199 230.052)"/>
    <path id="Path_9825" data-name="Path 9825" class="cls-3" d="M466.9,478.991s.453.222,1.161.521a12.38,12.38,0,0,1,1.7-1.656,8.047,8.047,0,0,1-.859-.465Z" transform="translate(489.173 105.702)"/>
    <path id="Path_9826" data-name="Path 9826" class="cls-3" d="M423.21,406.715a4.6,4.6,0,0,1,.356-.859l-.054-.066A3.381,3.381,0,0,0,423.21,406.715Z" transform="translate(525.279 164.872)"/>
    <path id="Path_9827" data-name="Path 9827" class="cls-3" d="M375.68,396.006l5.808,6.211,4.663,1.425s-.658-4.619-2.01-5.555a.656.656,0,0,1-.278-.464,9.906,9.906,0,0,0,1.389,4.572s-.45,0-1.007-1.515-4.418-5.607-5.088-6.131a3.76,3.76,0,0,0-1.423-.54C376.645,395.14,375.68,396.006,375.68,396.006Z" transform="translate(564.558 174.607)"/>
    <path id="Path_9828" data-name="Path 9828" class="cls-8" d="M364.65,396.572s.812,1.009,1.545.979,3.369,2.961,3.3,3.571.071,1.861.868,2.231,1.031,1.8,1.031,1.8,1.91,1,1.66,1.7,1.462,1.962,1.788,2.055-3.158,2.113-2.593,4.083-1.469,4.55-.9,5.456,2.526,7.159,1.762,7.465-18.748-.49-18.748-.49.628-8.261.071-9.784-.8-10.81-1.215-12.151-2.592-7.364.174-8.506,5.494-.446,6.164.08,4.531,4.607,5.088,6.13,1.007,1.517,1.007,1.517S363.419,399.014,364.65,396.572Z" transform="translate(584.117 174.313)"/>
    <path id="Path_9829" data-name="Path 9829" class="cls-3" d="M450.924,557.873s8.254-.049,8.671-.253,9.313-.969,11.94.868,3.857,5.85,3.857,5.85l.571,7.36,2.083,12.556s-3.552,5.232-4.977,3.621c-.5-.561-1.677-6.756-3.1-8.067s-2.344-11.8-2.269-12.462a3.43,3.43,0,0,0-2.257.054c-.958.481-15.255.41-15.337.4s-4.076-9.383-4.076-9.383Z" transform="translate(506.42 39.674)"/>
    <path id="Path_9830" data-name="Path 9830" class="cls-3" d="M598.55,712.219l1.852,2.328a13.01,13.01,0,0,0,3.29-3.364,5.843,5.843,0,0,1-.411-1.352Z" transform="translate(380.377 -86.389)"/>
    <path id="Path_9831" data-name="Path 9831" class="cls-4" d="M449.528,559s8.254-.05,8.671-.255,9.313-.969,11.94.868S474,565.469,474,565.469l.571,7.36,2.083,12.554s-3.555,5.229-4.984,3.618c-.5-.561-1.677-6.755-3.1-8.067s-2.344-11.8-2.269-12.462a3.43,3.43,0,0,0-2.257.054c-.958.481-15.243.408-15.327.408s-4.074-9.384-4.074-9.384Z" transform="translate(507.569 38.74)"/>
    <path id="Path_9832" data-name="Path 9832" class="cls-3" d="M362.008,348.386c.826,0,1.668.2,2.5.165a7.067,7.067,0,0,0,4.776-2.689c.2-.21.389-.429.575-.649.328-.389.642-.785.944-1.175a1.8,1.8,0,0,0,.521-1.215,2.751,2.751,0,0,0-.335-.825,3.439,3.439,0,0,1,.33-3.012,7.086,7.086,0,0,1,.495-.805c.529-.75,1.154-1.463,1.609-2.257a4.664,4.664,0,0,0,.507-1.215c.163-.649.153-1.33.286-1.986a4.545,4.545,0,0,1,2.33-3.081c.5-.269,1.175-.521,1.8-.849a6.3,6.3,0,0,0-9.99,7.494c-.028.036-.056.075-.085.111a26.434,26.434,0,0,1-1.89,2.163c-1.088,1.134-2.054,2-2.054,2l.262.279a4.911,4.911,0,0,0-2.317,2.519C361.927,344.024,361.88,346.067,362.008,348.386Z" transform="translate(575.91 230.055)"/>
    <path id="Path_9833" data-name="Path 9833" class="cls-2" d="M337.646,518.16s-3.717.457-2.974,5.958l.521,7.584s.075,3.048,1.934,2.975-1.017-11.006-1.017-11.006-.47-3.866,1.835-4.461Z" transform="translate(598.528 72.009)"/>
    <path id="Path_9834" data-name="Path 9834" class="cls-2" d="M467.755,543.708H466.49l-.2-12.783-.023-1.4s-1.34-4.406-3.569-4.7.748-1.042.748-1.042a6.3,6.3,0,0,1,4.309,5.744C467.83,533.968,467.755,543.708,467.755,543.708Z" transform="translate(493.33 67.365)"/>
    <path id="Path_9835" data-name="Path 9835" class="cls-5" d="M348.845,511.36l14.945.6s9.964,2.156,1.264,3.309l-17.7-.781S341.112,512.624,348.845,511.36Z" transform="translate(589.933 77.629)"/>
    <path id="Path_9836" data-name="Path 9836" class="cls-3" d="M488.274,566.207v10.952a1.31,1.31,0,0,1-.127.564h-.618l-.2-12.783A1.323,1.323,0,0,1,488.274,566.207Z" transform="translate(472.29 33.35)"/>
    <path id="Path_9837" data-name="Path 9837" class="cls-5" d="M355.4,557.378l21.336,1.37a1.323,1.323,0,0,1,1.238,1.319v10.957a1.323,1.323,0,0,1-1.417,1.319l-21.336-1.528a1.321,1.321,0,0,1-1.227-1.319V558.7a1.323,1.323,0,0,1,1.406-1.321Z" transform="translate(582.483 39.601)"/>
    <path id="Path_9838" data-name="Path 9838" class="cls-2" d="M242.184,531.22l-.2,2.383-.989-.181-12.426-2.265-.453-.082-.111-.781-1.114-.446.743.97.72.939,8.759,11.426.95,1.238-1.734,1.712-.861-1.238-8.15-11.719-.427-.613-.818-2.045.267,3.267,1.168,14.235.125,1.533h-2.751V530.815l-2.114,2.47-7.149,8.359-.849.993-1.712-2.378,1.022-.908,7.817-6.93.805-.714-.437-2.265-1.342-.125-9.886-.932-1.028-.1v-2.529l1.1.189,10.167,1.738.479.082.944-.372-.686-.88-7.681-9.877-.83-1.066,1.524-1.989.844,1.182L223.54,525.5l.358.5.7,1,.007-1.689.063-14.45.005-1.446,2.547.3-.127,1.364-1.34,14.408-.13,1.4.948.538.8-.943,8.5-10.063.72-.854,1.712,1.859-.962.93-9.291,9-.549.533.222,1.545,1.009.125,12.389,1.522Z" transform="translate(710.4 87.174)"/>
    <path id="Path_9839" data-name="Path 9839" class="cls-3" d="M292.557,576.831a22.865,22.865,0,0,1-.127,2.331l.988.174.2-2.382Zm-5.251-14.663a19.35,19.35,0,0,1,1.47,1.936l.962-.932-1.71-1.857Zm-.4,28.469.868,1.238,1.736-1.71-.95-1.238a14.089,14.089,0,0,1-1.654,1.708Zm-10.589,2.878v1.779h2.758l-.125-1.533a12.236,12.236,0,0,1-2.63-.248Zm2.343-38.055-2.536-.3v1.446a12.319,12.319,0,0,1,2.43.215Zm-13.714,5.855.83,1.066a14.977,14.977,0,0,1,1.536-1.868l-.844-1.184ZM264.488,586l1.71,2.38.849-.993a20.323,20.323,0,0,1-1.538-2.293Zm-3.048-14.5v2.528l1.026.1a22.2,22.2,0,0,1,.076-2.43Z" transform="translate(658.967 41.432)"/>
    <path id="Path_9840" data-name="Path 9840" class="cls-4" d="M287.672,564.3c-2.278-11.8-11.742-19.9-21.137-18.081s-15.163,12.846-12.884,24.65,11.742,19.889,21.137,18.081S289.953,576.1,287.672,564.3Zm-13.349,22.251c-8.332,1.611-16.74-5.576-18.762-16.05s3.1-20.274,11.438-21.883,16.743,5.576,18.764,16.05-3.1,20.274-11.438,21.883Z" transform="translate(665.814 49.03)"/>
    <path id="Path_9841" data-name="Path 9841" class="cls-3" d="M331.469,651.741l-1.114-.446.743.969.72.939a4.062,4.062,0,0,1-1.042,1.42l-.427-.615-.811-2.045.267,3.267a3.472,3.472,0,0,1-1.458.264V652.26l-2.107,2.472a4.291,4.291,0,0,1-.868-.868l.805-.713-.436-2.257-1.342-.127a4.581,4.581,0,0,1,.347-1.632l.479.082.944-.372-.686-.88a3.6,3.6,0,0,1,1.522-1.014l.358.5.707,1v-1.687a3.5,3.5,0,0,1,1.147.174l-.13,1.4.948.538.8-.941a4.534,4.534,0,0,1,.68.868l-.549.531.224,1.547,1.007.123a4.732,4.732,0,0,1-.165,1.592l-.451-.082Z" transform="translate(606.936 -34.273)"/>
    <ellipse id="Ellipse_799" data-name="Ellipse 799" class="cls-4" cx="3.559" cy="4.01" rx="3.559" ry="4.01" transform="translate(930.982 613.592) rotate(-10.93)"/>
    <path id="Path_9849" data-name="Path 9849" class="cls-9" d="M473.171,469.171a.1.1,0,1,1,.1-.1A.1.1,0,0,1,473.171,469.171Zm0-.163a.063.063,0,0,0-.062.063.064.064,0,0,0,.063.064.066.066,0,0,0,.064-.064.064.064,0,0,0-.064-.062Z" transform="translate(484.074 112.66)"/>
    <path id="Path_9850" data-name="Path 9850" class="cls-9" d="M473.832,467.961a.1.1,0,1,1,.1-.1A.1.1,0,0,1,473.832,467.961Zm0-.163a.066.066,0,0,0-.064.064.064.064,0,0,0,.064.063.063.063,0,0,0,.063-.062.064.064,0,0,0-.062-.061Z" transform="translate(483.529 113.66)"/>
    <path id="Path_9851" data-name="Path 9851" class="cls-9" d="M473.171,466.131a.1.1,0,1,1,.1-.1A.1.1,0,0,1,473.171,466.131Zm0-.163a.064.064,0,1,0,.064.028A.064.064,0,0,0,473.171,465.968Z" transform="translate(484.074 115.172)"/>
    <path id="Path_9852" data-name="Path 9852" class="cls-9" d="M477.382,470.391a.1.1,0,1,1,.1-.1A.1.1,0,0,1,477.382,470.391Zm0-.163a.064.064,0,0,0-.062.064.063.063,0,1,0,.125,0A.064.064,0,0,0,477.382,470.228Z" transform="translate(480.595 111.652)"/>
    <path id="Path_9866" data-name="Path 9866" class="cls-9" d="M475.921,470.112a.1.1,0,0,1-.1-.1.1.1,0,0,1,.2,0A.1.1,0,0,1,475.921,470.112Zm0-.161a.063.063,0,0,0-.064.063.064.064,0,1,0,.127,0,.062.062,0,0,0-.062-.066Z" transform="translate(481.802 111.87)"/>
    <path id="Path_9867" data-name="Path 9867" class="cls-9" d="M478.322,468.691a.1.1,0,1,1,.1-.1A.1.1,0,0,1,478.322,468.691Zm0-.163a.064.064,0,1,0,.054.063A.064.064,0,0,0,478.322,468.528Z" transform="translate(479.818 113.056)"/>
    <path id="Path_9868" data-name="Path 9868" class="cls-9" d="M480.391,469.442a.1.1,0,0,1-.1-.1.1.1,0,0,1,.2,0A.1.1,0,0,1,480.391,469.442Zm0-.161a.062.062,0,0,0-.064.063.064.064,0,1,0,.127,0A.063.063,0,0,0,480.391,469.281Z" transform="translate(478.107 112.424)"/>
    <path id="Path_9869" data-name="Path 9869" class="cls-9" d="M480.759,467.958a.1.1,0,1,1,.1-.1.1.1,0,0,1-.1.1Zm0-.161a.06.06,0,1,1,0,.005Z" transform="translate(477.802 113.66)"/>
    <path id="Path_9870" data-name="Path 9870" class="cls-9" d="M480.824,466.68a.1.1,0,1,1,.087-.1.1.1,0,0,1-.087.1Zm0-.163a.064.064,0,1,0,.064.028A.064.064,0,0,0,480.824,466.516Z" transform="translate(477.739 114.718)"/>
    <path id="Path_9871" data-name="Path 9871" class="cls-9" d="M481.331,471.211a.1.1,0,1,1,.1-.1.1.1,0,0,1-.1.1Zm0-.163a.064.064,0,1,0,.064.028A.064.064,0,0,0,481.331,471.048Z" transform="translate(477.331 110.974)"/>
    <path id="Path_9874" data-name="Path 9874" class="cls-9" d="M483.459,469.278a.1.1,0,0,1-.1-.1.1.1,0,0,1,.1-.1.1.1,0,0,1,.1.1.1.1,0,0,1-.1.1Zm0-.163a.064.064,0,0,0-.062.064.062.062,0,0,0,.062.063.064.064,0,0,0,.064-.062A.066.066,0,0,0,483.459,469.115Z" transform="translate(475.57 112.569)"/>
    <path id="Path_9881" data-name="Path 9881" class="cls-9" d="M483.443,467.641a.1.1,0,1,1,.1-.1A.1.1,0,0,1,483.443,467.641Zm0-.163a.064.064,0,1,0,.064.028A.064.064,0,0,0,483.443,467.478Z" transform="translate(475.587 113.924)"/>
    <path id="Path_9883" data-name="Path 9883" class="cls-9" d="M482.292,465.917a.064.064,0,0,1-.062-.064.063.063,0,0,1,.063-.062.064.064,0,0,1,.064.063A.066.066,0,0,1,482.292,465.917Zm0-.1a.04.04,0,1,0,.04.04A.04.04,0,0,0,482.292,465.813Z" transform="translate(476.504 115.288)"/>
    <path id="Path_9884" data-name="Path 9884" class="cls-9" d="M483.4,466.645a.063.063,0,1,1,.063-.062A.063.063,0,0,1,483.4,466.645Zm0-.1a.04.04,0,1,0,.04.04A.04.04,0,0,0,483.4,466.543Z" transform="translate(475.587 114.684)"/>
    <path id="Path_9900" data-name="Path 9900" class="cls-9" d="M475.3,466.839a.059.059,0,1,1,.063-.064A.064.064,0,0,1,475.3,466.839Zm0-.1a.04.04,0,1,0,.04.04A.04.04,0,0,0,475.3,466.734Z" transform="translate(482.281 114.519)"/>
    <path id="Path_9901" data-name="Path 9901" class="cls-9" d="M484.372,464.167a.062.062,0,0,1-.062-.062.064.064,0,0,1,.063-.064.066.066,0,0,1,.064.064A.064.064,0,0,1,484.372,464.167Zm0-.1a.042.042,0,1,0,.04.042.04.04,0,0,0-.04-.042Z" transform="translate(474.785 116.734)"/>
    <path id="Path_9902" data-name="Path 9902" class="cls-9" d="M476.263,468.477a.064.064,0,0,1-.062-.064.062.062,0,0,1,.063-.062.064.064,0,0,1,.064.063A.066.066,0,0,1,476.263,468.477Zm0-.1a.04.04,0,1,0,.04.04.04.04,0,0,0-.04-.04Z" transform="translate(481.487 113.172)"/>
    <path id="Path_9903" data-name="Path 9903" class="cls-9" d="M477.556,466.269a.064.064,0,1,1,.062-.062A.063.063,0,0,1,477.556,466.269Zm0-.1a.042.042,0,1,0,.04.042.04.04,0,0,0-.04-.042Z" transform="translate(480.421 114.998)"/>
    <path id="Path_9904" data-name="Path 9904" class="cls-9" d="M471.014,467.783a.064.064,0,1,1,.064-.028A.064.064,0,0,1,471.014,467.783Zm0-.1a.042.042,0,1,0,.04.042.04.04,0,0,0-.04-.042Z" transform="translate(485.817 113.747)"/>
    <path id="Path_9905" data-name="Path 9905" class="cls-9" d="M480.2,470.995a.063.063,0,1,1,.063-.062A.062.062,0,0,1,480.2,470.995Zm0-.1a.04.04,0,1,0,.04.04A.04.04,0,0,0,480.2,470.893Z" transform="translate(478.231 111.09)"/>
    <path id="Path_9906" data-name="Path 9906" class="cls-9" d="M482.824,471.127a.066.066,0,0,1-.064-.064.064.064,0,0,1,.064-.063.063.063,0,0,1,.063.063.064.064,0,0,1-.062.064Zm0-.1a.04.04,0,1,0,.04.04A.042.042,0,0,0,482.824,471.023Z" transform="translate(476.066 110.982)"/>
    <ellipse id="Ellipse_805" data-name="Ellipse 805" class="cls-9" cx="0.05" cy="0.05" rx="0.05" ry="0.05" transform="translate(956.981 581.663)"/>
    <ellipse id="Ellipse_806" data-name="Ellipse 806" class="cls-9" cx="0.05" cy="0.05" rx="0.05" ry="0.05" transform="translate(957.344 580.965)"/>
    <ellipse id="Ellipse_807" data-name="Ellipse 807" class="cls-9" cx="0.05" cy="0.05" rx="0.05" ry="0.05" transform="translate(957.847 581.281)"/>
    <ellipse id="Ellipse_808" data-name="Ellipse 808" class="cls-9" cx="0.05" cy="0.05" rx="0.05" ry="0.05" transform="translate(957.521 580.828)"/>
    <ellipse id="Ellipse_810" data-name="Ellipse 810" class="cls-9" cx="0.05" cy="0.05" rx="0.05" ry="0.05" transform="translate(957.771 581.092)"/>
    <ellipse id="Ellipse_811" data-name="Ellipse 811" class="cls-9" cx="0.05" cy="0.05" rx="0.05" ry="0.05" transform="translate(957.583 581.069)"/>
    <ellipse id="Ellipse_812" data-name="Ellipse 812" class="cls-9" cx="0.05" cy="0.05" rx="0.05" ry="0.05" transform="translate(957.946 581.446)"/>
    <ellipse id="Ellipse_822" data-name="Ellipse 822" class="cls-9" cx="0.05" cy="0.05" rx="0.05" ry="0.05" transform="translate(958.238 581.93)"/>
    <ellipse id="Ellipse_827" data-name="Ellipse 827" class="cls-9" cx="0.036" cy="0.036" rx="0.036" ry="0.036" transform="translate(958.759 581.496)"/>
    <ellipse id="Ellipse_833" data-name="Ellipse 833" class="cls-9" cx="0.036" cy="0.036" rx="0.036" ry="0.036" transform="translate(958.889 580.901)"/>
    <ellipse id="Ellipse_835" data-name="Ellipse 835" class="cls-9" cx="0.036" cy="0.036" rx="0.036" ry="0.036" transform="translate(958.279 581.312)"/>
    <ellipse id="Ellipse_838" data-name="Ellipse 838" class="cls-9" cx="0.036" cy="0.036" rx="0.036" ry="0.036" transform="translate(959.206 581.449)"/>
    <ellipse id="Ellipse_840" data-name="Ellipse 840" class="cls-9" cx="0.036" cy="0.036" rx="0.036" ry="0.036" transform="translate(959.161 581.06)"/>
    <ellipse id="Ellipse_843" data-name="Ellipse 843" class="cls-9" cx="0.036" cy="0.036" rx="0.036" ry="0.036" transform="translate(957.208 580.984)"/>
    <ellipse id="Ellipse_844" data-name="Ellipse 844" class="cls-9" cx="0.036" cy="0.036" rx="0.036" ry="0.036" transform="translate(958.434 581.118)"/>
    <ellipse id="Ellipse_845" data-name="Ellipse 845" class="cls-9" cx="0.036" cy="0.036" rx="0.036" ry="0.036" transform="translate(958.01 580.842)"/>
    <ellipse id="Ellipse_846" data-name="Ellipse 846" class="cls-9" cx="0.036" cy="0.036" rx="0.036" ry="0.036" transform="translate(957.842 581.51)"/>
    <ellipse id="Ellipse_847" data-name="Ellipse 847" class="cls-9" cx="0.036" cy="0.036" rx="0.036" ry="0.036" transform="translate(958.04 581.064)"/>
    <ellipse id="Ellipse_848" data-name="Ellipse 848" class="cls-9" cx="0.036" cy="0.036" rx="0.036" ry="0.036" transform="translate(956.877 581.219)"/>
    <ellipse id="Ellipse_857" data-name="Ellipse 857" class="cls-9" cx="0.05" cy="0.05" rx="0.05" ry="0.05" transform="translate(958.153 581.177)"/>
    <ellipse id="Ellipse_858" data-name="Ellipse 858" class="cls-9" cx="0.05" cy="0.05" rx="0.05" ry="0.05" transform="translate(958.856 580.696)"/>
    <ellipse id="Ellipse_860" data-name="Ellipse 860" class="cls-9" cx="0.05" cy="0.05" rx="0.05" ry="0.05" transform="translate(958.634 580.689)"/>
    <ellipse id="Ellipse_861" data-name="Ellipse 861" class="cls-9" cx="0.05" cy="0.05" rx="0.05" ry="0.05" transform="translate(958.33 580.731)"/>
    <ellipse id="Ellipse_863" data-name="Ellipse 863" class="cls-9" cx="0.05" cy="0.05" rx="0.05" ry="0.05" transform="translate(956.996 581.347)"/>
    <ellipse id="Ellipse_864" data-name="Ellipse 864" class="cls-9" cx="0.05" cy="0.05" rx="0.05" ry="0.05" transform="translate(957.436 581.795)"/>
    <ellipse id="Ellipse_865" data-name="Ellipse 865" class="cls-9" cx="0.05" cy="0.05" rx="0.05" ry="0.05" transform="translate(959.107 582.013)"/>
    <ellipse id="Ellipse_866" data-name="Ellipse 866" class="cls-9" cx="0.05" cy="0.05" rx="0.05" ry="0.05" transform="translate(958.726 581.795)"/>
    <path id="Path_9908" data-name="Path 9908" class="cls-6" d="M453.95,498.32s3.935,2.184,5.925,3.448,5.407,4.791,2.106,4.953-8.291-6.1-8.291-6.1Z" transform="translate(500.09 88.405)"/>
    <path id="Path_9909" data-name="Path 9909" class="cls-3" d="M371.443,419.773s-.411,2.647.408,2.852.981,2.243.694,2.267,1.519,1.462,1.1,2.146.347,1.441,1.057,1.578a2.9,2.9,0,0,1,1.944,1.173,7.191,7.191,0,0,0,3.323,1.89c.776.087.5,3.031-.37,3.27s-3.645-1.647-4.578-.521-3.779,3.446-5.109,2.79-3.566-2.7-4.612-2.878-2.288-12.044-1.354-13.847S366.706,415.822,371.443,419.773Z" transform="translate(574.523 154.957)"/>
    <path id="Path_9910" data-name="Path 9910" class="cls-8" d="M362.008,423.406c.222,3.953.958,8.706,1.618,8.817,1.042.174,3.284,2.222,4.614,2.878s4.166-1.661,5.107-2.79,3.708.755,4.578.521,1.146-3.182.37-3.269a7.189,7.189,0,0,1-3.323-1.9,2.869,2.869,0,0,0-1.944-1.173c-.713-.132-1.47-.9-1.055-1.58s-1.389-2.12-1.106-2.144c.111-.01.155-.328.116-.722-.061-.616-.314-1.422-.814-1.547a.489.489,0,0,1-.307-.269,5.964,5.964,0,0,1-.1-2.583c-2.371-1.974-4.01-2.243-5.173-1.793a4.924,4.924,0,0,0-2.317,2.519C361.927,419.044,361.88,421.085,362.008,423.406Z" transform="translate(575.91 156.708)"/>
    <path id="Path_9911" data-name="Path 9911" class="cls-5" d="M318.525,303.7c.347-.722-.356-1.552-1.114-1.814s-1.607-.219-2.338-.552c-1.25-.569-1.84-2.083-3.059-2.713a4.716,4.716,0,0,0-3.137-.137c-1.545.326-3.319,1.1-3.555,2.661a10.064,10.064,0,0,1-.115,2.118c-.649,1.706-3.586,1.118-4.574,2.652a3.4,3.4,0,0,0-.4,1.267l-1.022,5.788a4.432,4.432,0,0,1-3.649,4.2,5.361,5.361,0,0,1-2.442.552,2.316,2.316,0,0,0-1.233.01,1.526,1.526,0,0,0-.67,1.005,10.382,10.382,0,0,0-.217,5.111,4.117,4.117,0,0,1,.141,2.048,4.243,4.243,0,0,1-1.05,1.436,8.545,8.545,0,0,0-1.88,3.347,2.791,2.791,0,0,0,.347,2.741,3.279,3.279,0,0,0,2.715.521,3.416,3.416,0,0,0,3.637-2.324l1.437-3.078c.759-1.623,1.736-3.428,3.472-3.843,1.1-.262,2.246.113,3.376.071,2.67-.1,4.659-2.4,6.294-4.513a1.8,1.8,0,0,0,.521-1.215,2.8,2.8,0,0,0-.337-.825c-.568-1.241.038-2.7.825-3.819a11.19,11.19,0,0,0,2.118-3.472c.163-.649.151-1.331.285-1.988a4.555,4.555,0,0,1,2.331-3.081C316.246,305.3,317.989,304.814,318.525,303.7Z" transform="translate(637.003 253.716)"/>
    <path id="Path_9912" data-name="Path 9912" class="cls-10" d="M318.525,303.7c.347-.722-.356-1.552-1.114-1.814s-1.607-.219-2.338-.552c-1.25-.569-1.84-2.083-3.059-2.713a4.716,4.716,0,0,0-3.137-.137c-1.545.326-3.319,1.1-3.555,2.661a10.064,10.064,0,0,1-.115,2.118c-.649,1.706-3.586,1.118-4.574,2.652a3.4,3.4,0,0,0-.4,1.267l-1.022,5.788a4.432,4.432,0,0,1-3.649,4.2,5.361,5.361,0,0,1-2.442.552,2.316,2.316,0,0,0-1.233.01,1.526,1.526,0,0,0-.67,1.005,10.382,10.382,0,0,0-.217,5.111,4.117,4.117,0,0,1,.141,2.048,4.243,4.243,0,0,1-1.05,1.436,8.545,8.545,0,0,0-1.88,3.347,2.791,2.791,0,0,0,.347,2.741,3.279,3.279,0,0,0,2.715.521,3.416,3.416,0,0,0,3.637-2.324l1.437-3.078c.759-1.623,1.736-3.428,3.472-3.843,1.1-.262,2.246.113,3.376.071,2.67-.1,4.659-2.4,6.294-4.513a1.8,1.8,0,0,0,.521-1.215,2.8,2.8,0,0,0-.337-.825c-.568-1.241.038-2.7.825-3.819a11.19,11.19,0,0,0,2.118-3.472c.163-.649.151-1.331.285-1.988a4.555,4.555,0,0,1,2.331-3.081C316.246,305.3,317.989,304.814,318.525,303.7Z" transform="translate(637.003 253.716)"/>
    <g id="Group_5175" data-name="Group 5175" class="cls-11" transform="translate(926.694 552.015)">
      <path id="Path_9913" data-name="Path 9913" d="M313.951,409.8c-.106-.01-.214-.026-.321-.042a3.024,3.024,0,0,1,.391.045Z" transform="translate(-310.858 -390.424)"/>
      <path id="Path_9914" data-name="Path 9914" d="M298.915,333.963a3.411,3.411,0,0,0,3.637-2.324l1.439-3.078c.757-1.621,1.736-3.427,3.472-3.843,1.1-.262,2.248.115,3.378.073,2.67-.1,4.659-2.4,6.294-4.513a1.806,1.806,0,0,0,.521-1.215,2.854,2.854,0,0,0-.335-.823c-.568-1.241.036-2.7.825-3.819a11.137,11.137,0,0,0,2.118-3.472c.161-.649.151-1.331.285-1.988a4.543,4.543,0,0,1,2.33-3.081c1-.543,2.745-1.029,3.281-2.144.347-.724-.347-1.552-1.114-1.814s-1.607-.219-2.338-.552c-1.25-.569-1.838-2.083-3.059-2.715a2.9,2.9,0,0,0-.891-.285,3.11,3.11,0,0,1,1.224.323c1.215.632,1.809,2.144,3.059,2.715.731.332,1.58.288,2.338.552s1.462,1.09,1.113,1.814c-.536,1.114-2.278,1.6-3.279,2.144A4.546,4.546,0,0,0,320.88,309c-.134.656-.122,1.337-.285,1.988a11.2,11.2,0,0,1-2.118,3.472c-.788,1.118-1.389,2.576-.825,3.819a2.728,2.728,0,0,1,.337.825,1.779,1.779,0,0,1-.521,1.215c-1.635,2.113-3.625,4.416-6.294,4.513-1.13.04-2.278-.335-3.376-.073-1.736.415-2.717,2.222-3.472,3.843q-.719,1.54-1.439,3.078a4.507,4.507,0,0,1-.858,1.377,4.586,4.586,0,0,1-2.777.948,6.112,6.112,0,0,1-1.592.014A7.262,7.262,0,0,0,298.915,333.963Z" transform="translate(-297.66 -298.37)"/>
    </g>
    <path id="Path_9915" data-name="Path 9915" class="cls-3" d="M436,437.9s2.489,3.38,2.342,4.906a7.155,7.155,0,0,0,.3,2.777" transform="translate(514.709 138.336)"/>
    <path id="Path_9916" data-name="Path 9916" class="cls-3" d="M456.42,457.82s1.029,4.312,1.364,4.312S456.42,457.82,456.42,457.82Z" transform="translate(497.834 121.874)"/>
    <g id="Group_5177" data-name="Group 5177" transform="translate(962.23 589.511)">
      <path id="Path_9942" data-name="Path 9942" class="cls-5" d="M588.206,525.982l-.049,9.386-1.732-.144-6.3-51.258,1.861-.056,1.314-.04Z" transform="translate(-557.692 -481.223)"/>
      <path id="Path_9943" data-name="Path 9943" class="cls-12" d="M588.157,535.558l-1.732-.144-6.3-51.258,1.861-.056-.08.3Z" transform="translate(-557.692 -481.413)"/>
      <path id="Path_9944" data-name="Path 9944" class="cls-5" d="M634.89,484.98,628.538,535.8l-1.191.269-.927.212.049-9.386,5.583-41.726.109-.009Z" transform="translate(-595.954 -482.14)"/>
      <path id="Path_9945" data-name="Path 9945" class="cls-12" d="M627.335,536.92l.012.03-.927.212.049-9.386,5.583-41.727.109-.009,1.142.248Z" transform="translate(-595.954 -483.016)"/>
      <path id="Path_9946" data-name="Path 9946" class="cls-4" d="M728.018,515.114l-.146,11.839-.576,2.154-5.775-45.325,1.363-.148.417-.045Z" transform="translate(-674.546 -480.991)"/>
      <path id="Path_9947" data-name="Path 9947" class="cls-12" d="M728.018,515.114l-.146,11.839-.576,2.154-5.775-45.325,1.363-.148.417-.045Z" transform="translate(-674.546 -480.991)"/>
      <path id="Path_9948" data-name="Path 9948" class="cls-5" d="M734.5,515.114l-.146,11.839-4.909-42.93-.08-.389.417-.045Z" transform="translate(-681.033 -480.991)"/>
      <path id="Path_9949" data-name="Path 9949" class="cls-4" d="M757.147,498.786l.144,29.731-.8-.031-1.7-.064.674-45.662,1.295.161.63.078Z" transform="translate(-702.04 -480.305)"/>
      <path id="Path_9950" data-name="Path 9950" class="cls-12" d="M757.147,498.786l.144,29.731-.8-.031-1.7-.064.674-45.662,1.295.161.63.078Z" transform="translate(-702.04 -480.305)"/>
      <path id="Path_9951" data-name="Path 9951" class="cls-5" d="M765.23,499.555l.144,29.731-.8-.031.271-45.565.63.078Z" transform="translate(-710.123 -481.074)"/>
      <path id="Path_9952" data-name="Path 9952" class="cls-4" d="M450.92,473.451l.1-1.444,8.279.049,24.883-.385,19.2,1.059,12.224.24.146,1.349-31.429.578Z" transform="translate(-450.92 -471.14)"/>
      <path id="Path_9953" data-name="Path 9953" class="cls-5" d="M450.92,473.451l.1-1.444,8.279.049,24.883-.385,19.2,1.059,12.224.24.146,1.349-31.429.578Z" transform="translate(-450.92 -471.14)"/>
      <path id="Path_9954" data-name="Path 9954" class="cls-5" d="M451.47,469.486l24.546,1.059,40.043-.1-29.936-1.828Z" transform="translate(-451.374 -468.62)"/>
      <path id="Path_9955" data-name="Path 9955" class="cls-3" d="M451.47,469.486l24.546,1.059,40.043-.1-29.936-1.828Z" transform="translate(-451.374 -468.62)"/>
    </g>
    <path id="Path_9985" data-name="Path 9985" class="cls-9" d="M660.725,491.341a.1.1,0,0,1-.1-.1.094.094,0,0,1,.1-.1.1.1,0,0,1,0,.191Zm0-.156a.059.059,0,0,0-.061.061.061.061,0,1,0,.061-.061Z" transform="translate(329.073 94.33)"/>
    <path id="Path_10020" data-name="Path 10020" class="cls-9" d="M662.192,491.239a.062.062,0,1,1,.063-.027A.062.062,0,0,1,662.192,491.239Zm0-.1a.039.039,0,0,0,0,.078.04.04,0,1,0,0-.078Z" transform="translate(327.825 94.359)"/>
    <ellipse id="Ellipse_933" data-name="Ellipse 933" class="cls-9" cx="0.049" cy="0.049" rx="0.049" ry="0.049" transform="translate(990.227 585.506)"/>
    <ellipse id="Ellipse_941" data-name="Ellipse 941" class="cls-1" cx="6.317" cy="1.083" rx="6.317" ry="1.083" transform="translate(895.199 637.617)"/>
  </g>
</svg>
